<svg aria-hidden="true" style="position:absolute;width:0;height:0;overflow:hidden" xmlns="http://www.w3.org/2000/svg"><defs><symbol id="icon-envelope" viewBox="0 0 43 32"><path d="M38.667 0H4C1.795 0 0 1.795 0 4v24c0 2.205 1.795 4 4 4h34.667c2.205 0 4-1.795 4-4V4c0-2.205-1.795-4-4-4zm0 2.667c.181 0 .355.037.512.104L21.334 18.238 3.489 2.771c.151-.065.327-.104.512-.104h34.667zm0 26.666H4A1.333 1.333 0 0 1 2.667 28V5.587l17.792 15.421c.233.203.539.327.875.327s.642-.124.876-.328l-.002.001L40 5.587V28c0 .736-.597 1.333-1.333 1.333z"/></symbol><symbol id="icon-smartphone" viewBox="0 0 20 32"><path d="M17 0H3C1.346 0 0 1.346 0 3v26c0 1.654 1.346 3 3 3h14c1.654 0 3-1.346 3-3V3c0-1.654-1.346-3-3-3zM3 2h14a1 1 0 0 1 1 1v21H2V3a1 1 0 0 1 1-1zm14 28H3a1 1 0 0 1-1-1v-3h16v3a1 1 0 0 1-1 1z"/><path fill="#757575" style="fill:var(--color1, #757575)" d="M4.708 27.478a.889.889 0 0 1 .001 1.319l-.001.001a1.048 1.048 0 0 1-1.417 0l.001.001a.889.889 0 0 1-.001-1.319l.001-.001a1.048 1.048 0 0 1 1.417 0l-.001-.001z"/></symbol><symbol id="icon-twitter" viewBox="0 0 32 32"><path d="M32 6.078c-1.1.493-2.376.857-3.713 1.028l-.068.007a6.556 6.556 0 0 0 2.873-3.579l.013-.046a12.88 12.88 0 0 1-4.076 1.573l-.084.014A6.558 6.558 0 0 0 15.6 9.557v.004c0 .52.043 1.021.152 1.496-5.454-.266-10.28-2.88-13.522-6.861a6.524 6.524 0 0 0-.902 3.313v.001a6.575 6.575 0 0 0 2.914 5.453 6.453 6.453 0 0 1-2.994-.823l.033.017v.072a6.592 6.592 0 0 0 5.213 6.437l.043.008a6.4 6.4 0 0 1-1.668.216h-.055.003c-.419 0-.843-.024-1.242-.112.85 2.598 3.261 4.509 6.13 4.57a13.093 13.093 0 0 1-8.122 2.8H1.57h.001-.062c-.531 0-1.055-.034-1.569-.099l.061.006c2.826 1.846 6.287 2.944 10.004 2.944h.063-.003c12.072 0 18.672-10 18.672-18.669 0-.288-.01-.57-.024-.848a13.203 13.203 0 0 0 3.258-3.355l.03-.047z"/></symbol><symbol id="icon-logo-6" viewBox="0 0 32 32"><path fill="#afb1b8" style="fill:var(--color2, #afb1b8)" d="M16.145 15.628a.994.994 0 0 1-.206-.68v.003-.982c0-.301.068-.529.205-.686s.371-.234.703-.234c.312 0 .534.067.665.2.143.17.213.378.197.587v.231h-.558v-.234a1.161 1.161 0 0 0-.016-.228.226.226 0 0 0-.08-.136.317.317 0 0 0-.178-.054l-.025.001h.001l-.024-.001a.343.343 0 0 0-.19.057l.001-.001a.263.263 0 0 0-.092.148v.002a1.12 1.12 0 0 0-.022.224v.02-.001 1.191a.603.603 0 0 0 .072.334.257.257 0 0 0 .11.08l.002.001a.303.303 0 0 0 .145.019h-.001a.303.303 0 0 0 .198-.054l-.001.001a.24.24 0 0 0 .083-.143v-.001c.013-.079.019-.159.017-.239v-.242h.559v.221l.002.058a.895.895 0 0 1-.196.561l.001-.002c-.128.146-.347.219-.669.219s-.564-.078-.702-.24zm2.325.01c-.141-.153-.212-.376-.212-.67v-1.033c0-.292.07-.512.212-.662s.377-.224.708-.224c.328 0 .563.075.704.224.141.15.213.37.213.662v1.032c0 .292-.072.515-.215.669s-.377.23-.702.23-.565-.078-.708-.229zm.968-.247a.564.564 0 0 0 .067-.305v-1.264l.001-.034a.561.561 0 0 0-.068-.268l.001.003a.257.257 0 0 0-.112-.081l-.002-.001a.294.294 0 0 0-.149-.018h.002a.297.297 0 0 0-.15.019l.002-.001a.264.264 0 0 0-.114.082v.001a.545.545 0 0 0-.067.3v1.27a.57.57 0 0 0 .067.306.353.353 0 0 0 .118.076.391.391 0 0 0 .289-.001l-.003.001a.363.363 0 0 0 .118-.076v-.006zm1.329-2.31h.601l.452 1.905.463-1.905h.585l.059 2.749h-.433l-.046-1.911-.446 1.911h-.347l-.462-1.918-.043 1.918h-.437l.054-2.749zm2.835 0h.937c.54 0 .81.26.81.781 0 .498-.284.748-.852.747h-.319v1.222H23.6l.003-2.75zm.8 1.174c.057.006.115.002.17-.013s.106-.04.148-.074a.443.443 0 0 0 .083-.31l.001-.03a.837.837 0 0 0-.03-.225l.001.006a.203.203 0 0 0-.043-.076.238.238 0 0 0-.071-.055l-.001-.001a.598.598 0 0 0-.228-.045l-.032.001h.001-.224v.822h.225zm1.78-1.174h.621l.637 2.749h-.539l-.126-.634h-.554l-.129.634h-.547l.637-2.749zm.531 1.797-.216-1.154-.216 1.154h.432zm1.242-1.797h.405l.774 1.568v-1.568h.48v2.749h-.385l-.78-1.637v1.637h-.496l.001-2.749zm2.783 1.7-.644-1.697h.543l.393 1.09.369-1.09h.531l-.636 1.697v1.048h-.555V14.78zm-13.7 2.251v.144h-.472v1.117h-.198v-1.117h-.474v-.144h1.144zm1.479 1.261h-.157a.075.075 0 0 1-.039-.012.064.064 0 0 1-.025-.029l-.137-.3h-.655l-.136.3a.085.085 0 0 1-.021.034.067.067 0 0 1-.039.012h-.156l.578-1.261h.201l.586 1.256zm-.958-.468h.546l-.232-.513a.851.851 0 0 1-.041-.112l-.002-.006-.022.067-.021.053-.229.512zm1.955.344a.706.706 0 0 0 .284-.038c.026-.009.051-.02.077-.031v-.284h-.233a.048.048 0 0 1-.029-.01.028.028 0 0 1-.009-.01.02.02 0 0 1-.003-.011v-.098h.449v.483a.833.833 0 0 1-.238.101l-.006.001a1.025 1.025 0 0 1-.145.026 1.893 1.893 0 0 1-.169.008h-.007a.87.87 0 0 1-.29-.049l.006.002a.707.707 0 0 1-.232-.133l.001.001a.62.62 0 0 1-.148-.196l-.002-.004a.616.616 0 0 1-.053-.253v-.017c0-.092.019-.18.054-.26l-.002.004a.576.576 0 0 1 .149-.2.706.706 0 0 1 .232-.131 1.08 1.08 0 0 1 .471-.036.813.813 0 0 1 .254.082c.035.02.069.042.101.066l-.055.078a.058.058 0 0 1-.018.017.06.06 0 0 1-.027.007.075.075 0 0 1-.036-.01.654.654 0 0 1-.06-.032l.003.002a.459.459 0 0 0-.074-.033l-.004-.001a.627.627 0 0 0-.102-.027l-.005-.001a.861.861 0 0 0-.139-.011h-.015a.674.674 0 0 0-.221.037l.005-.001a.434.434 0 0 0-.276.254l-.001.003a.586.586 0 0 0 .001.424l-.001-.004a.502.502 0 0 0 .285.259c.074.022.151.03.229.025zm1.843-.02h.631v.144h-.824v-1.261h.197l-.004 1.117zm1.288.144h-.197v-1.261h.197v1.261zm.736-1.255a.086.086 0 0 1 .03.023l.845.95-.001-.022.001-.023v.001-.94h.172v1.266H24.323a.09.09 0 0 1-.037-.008h.001a.103.103 0 0 1-.031-.024l-.844-.95v.98h-.165V17.03h.103c.011 0 .022.002.032.006zm2.504-.006v.139h-.701v.416h.568v.134h-.568v.431h.701v.139h-.904v-1.258h.904zM5.162 9.245l8.781 2.152v7.543l-8.781-2.151V9.245zm-.564-.644v8.554l9.906 2.429v-8.553l-9.906-2.43z"/><path fill="#afb1b8" style="fill:var(--color2, #afb1b8)" d="M9.908 23.555 0 21.124v-8.553l9.908 2.43v8.554z"/><path fill="#afb1b8" style="fill:var(--color2, #afb1b8)" d="m4.763 9.148 8.667 2.126-3.685 3.183-8.668-2.127 3.687-3.182zm-.165-.546L0 12.571l9.908 2.431 4.597-3.97-9.906-2.43zm5.867 14.472 4.04-3.489-4.04-.991v4.48z"/></symbol><symbol id="icon-logo-5" viewBox="0 0 32 32"><path fill="#afb1b8" style="fill:var(--color2, #afb1b8)" d="M2.416 23.738c.124.14.189.316.186.496l.001.038a.73.73 0 0 1-.069.31l.002-.004a.792.792 0 0 1-.221.282l-.002.001a1.322 1.322 0 0 1-.843.228h.004-1.475v-3.144h1.445a1.313 1.313 0 0 1 .805.211l-.005-.003a.739.739 0 0 1 .216.264.656.656 0 0 1 .064.325.686.686 0 0 1-.168.48.802.802 0 0 1-.44.246.85.85 0 0 1 .498.269zm-1.73-.474h.618a.631.631 0 0 0 .393-.105.368.368 0 0 0 .104-.137l.001-.002a.344.344 0 0 0 .029-.138l-.001-.031v.001a.359.359 0 0 0-.029-.169l.001.002a.381.381 0 0 0-.103-.14.63.63 0 0 0-.406-.106h.002-.608v.825zm1.071 1.206a.4.4 0 0 0 .113-.142l.001-.002a.351.351 0 0 0 .033-.15l-.001-.026v.001l.001-.023a.376.376 0 0 0-.035-.157l.001.002a.408.408 0 0 0-.115-.144l-.001-.001a.673.673 0 0 0-.378-.115l-.043.001h.002-.648v.865h.656a.688.688 0 0 0 .414-.109zm3.612.621-.803-1.229h-.302v1.229h-.691v-3.145h1.309a1.368 1.368 0 0 1 .914.27l-.004-.003a.964.964 0 0 1 .313.7.946.946 0 0 1-.217.603l.001-.002a1.09 1.09 0 0 1-.618.319l-.006.001.856 1.257h-.752zm-1.105-1.658h.565c.393 0 .589-.158.589-.476l.001-.025a.427.427 0 0 0-.034-.168l.001.003a.484.484 0 0 0-.112-.163.646.646 0 0 0-.39-.13l-.057.002h.002-.572l.007.957zm4.884 1.024H7.77l-.243.633h-.725l1.265-3.11h.784l1.26 3.11h-.724l-.238-.633zm-.184-.476-.503-1.327-.503 1.327h1.007zm4.914 1.11h-.686l-1.539-2.138v2.138h-.685v-3.145h.685l1.539 2.151v-2.151h.686v3.145zm3.917-.753a1.433 1.433 0 0 1-.621.555 2.138 2.138 0 0 1-.909.199l-.059-.001h.003-1.221v-3.145h1.222l.057-.001c.329 0 .641.071.922.199l-.014-.006c.263.122.479.313.621.549.141.256.215.538.215.825s-.074.569-.215.825zm-.786-.075c.186-.195.301-.459.303-.75a1.1 1.1 0 0 0-.303-.75 1.259 1.259 0 0 0-.863-.267h.004-.476v2.036h.476c.024.002.051.002.079.002.296 0 .568-.102.783-.272l-.003.002zM9.578 4.453s8.857 3.062 8.67 7.493v7.494s-8.851-3.063-8.667-7.494l-.003-7.493zm16.56 13.232a12.85 12.85 0 0 1 5.628-1.899v-2.347c-2.327.822-4.302 2.311-5.628 4.245z"/><path fill="#afb1b8" style="fill:var(--color2, #afb1b8)" d="M25.134 18.392c1.369-2.524 3.742-4.472 6.633-5.444v-6.76S19.152 10.55 19.419 16.859v10.67s.562-.195 1.447-.561c0-.341 0-.685.041-1.031.261-2.929 1.781-5.643 4.228-7.546z"/><path fill="#afb1b8" style="fill:var(--color2, #afb1b8)" d="M23.934 22.356c.066-.74.214-1.472.441-2.185-1.524 1.643-2.446 3.683-2.638 5.831a8.806 8.806 0 0 0-.034.615 35.154 35.154 0 0 0 2.629-1.27l-.203.1a10.095 10.095 0 0 1-.196-3.09zm.502.038a9.713 9.713 0 0 0 .167 2.861l-.011-.063c3.446-1.889 7.319-4.806 7.17-8.332v-.307c-2.462.252-4.766 1.238-6.557 2.805a9.547 9.547 0 0 0-.765 2.998l-.003.038z"/></symbol><symbol id="icon-logo-4" viewBox="0 0 106 60"><path d="M24.1462 21.1028H24.1433C21.7453 21.1028 19.8013 22.8304 19.8013 24.9615V24.964C19.8013 27.0951 21.7453 28.8227 24.1433 28.8227H24.1462C26.5442 28.8227 28.4882 27.0951 28.4882 24.964V24.9615C28.4882 22.8304 26.5442 21.1028 24.1462 21.1028Z" fill="#AFB1B8"/>
<path d="M56.195 19.8693C56.1882 16.9093 54.8623 14.0722 52.5074 11.979C50.1525 9.88568 46.9604 8.70667 43.6297 8.69995V8.69995C40.298 8.70533 37.1045 9.88374 34.7484 11.9772C32.3922 14.0706 31.0655 16.9084 31.0587 19.8693V36.1921C31.0587 36.1921 56.1922 33.7044 56.195 19.8718V19.8693Z" fill="#AFB1B8"/>
<path d="M11 41.5495C11.006 43.6091 11.9291 45.5828 13.5676 47.0394C15.2061 48.496 17.4267 49.317 19.7442 49.3231C22.0612 49.317 24.2814 48.4963 25.9197 47.0403C27.5581 45.5843 28.4816 43.6112 28.4884 41.552V30.1943C28.4884 30.1943 11 31.9266 11 41.5495ZM19.7442 43.5844C19.2913 43.5844 18.8486 43.4651 18.472 43.2415C18.0955 43.0179 17.802 42.7001 17.6287 42.3282C17.4554 41.9564 17.41 41.5472 17.4984 41.1525C17.5867 40.7577 17.8048 40.3951 18.125 40.1105C18.4453 39.8259 18.8533 39.6321 19.2975 39.5536C19.7416 39.4751 20.202 39.5154 20.6205 39.6694C21.0389 39.8234 21.3965 40.0843 21.6481 40.4189C21.8997 40.7535 22.034 41.147 22.034 41.5495C22.0351 41.8173 21.9767 42.0828 21.8622 42.3306C21.7476 42.5783 21.5791 42.8036 21.3664 42.9933C21.1536 43.1831 20.9008 43.3337 20.6224 43.4364C20.3441 43.5392 20.0456 43.5921 19.7442 43.5921V43.5844Z" fill="#AFB1B8"/>
<path d="M37.4177 42.4637H35.7302V44.2069H34.8513V39.9413H37.6286V40.6532H35.7302V41.7548H37.4177V42.4637ZM41.6423 42.1708C41.6423 42.5907 41.5681 42.9589 41.4196 43.2753C41.2712 43.5917 41.0583 43.8358 40.7809 44.0077C40.5056 44.1796 40.1891 44.2655 39.8317 44.2655C39.4782 44.2655 39.1628 44.1805 38.8854 44.0106C38.6081 43.8407 38.3932 43.5985 38.2409 43.2841C38.0886 42.9677 38.0114 42.6044 38.0095 42.1942V41.9833C38.0095 41.5634 38.0847 41.1942 38.235 40.8759C38.3874 40.5555 38.6013 40.3104 38.8766 40.1405C39.154 39.9686 39.4704 39.8827 39.8259 39.8827C40.1813 39.8827 40.4968 39.9686 40.7722 40.1405C41.0495 40.3104 41.2634 40.5555 41.4138 40.8759C41.5661 41.1942 41.6423 41.5624 41.6423 41.9803V42.1708ZM40.7516 41.9774C40.7516 41.5302 40.6716 41.1903 40.5114 40.9579C40.3513 40.7255 40.1227 40.6093 39.8259 40.6093C39.5309 40.6093 39.3034 40.7245 39.1432 40.955C38.9831 41.1835 38.902 41.5194 38.9001 41.9628V42.1708C38.9001 42.6063 38.9802 42.9442 39.1403 43.1844C39.3005 43.4247 39.5309 43.5448 39.8317 43.5448C40.1266 43.5448 40.3532 43.4296 40.5114 43.1991C40.6696 42.9667 40.7497 42.6288 40.7516 42.1854V41.9774ZM44.4929 43.0878C44.4929 42.9218 44.4343 42.7948 44.3171 42.7069C44.1999 42.6171 43.989 42.5233 43.6843 42.4257C43.3796 42.326 43.1384 42.2284 42.9606 42.1327C42.4763 41.871 42.2341 41.5184 42.2341 41.0751C42.2341 40.8446 42.2985 40.6395 42.4274 40.4598C42.5583 40.2782 42.7448 40.1366 42.987 40.035C43.2311 39.9335 43.5046 39.8827 43.8073 39.8827C44.112 39.8827 44.3835 39.9384 44.6218 40.0497C44.86 40.1591 45.0446 40.3143 45.1755 40.5155C45.3083 40.7167 45.3747 40.9452 45.3747 41.201H44.4958C44.4958 41.0057 44.4343 40.8544 44.3112 40.7469C44.1882 40.6376 44.0153 40.5829 43.7927 40.5829C43.5778 40.5829 43.4108 40.6288 43.2917 40.7206C43.1725 40.8104 43.113 40.9296 43.113 41.078C43.113 41.2167 43.1823 41.3329 43.321 41.4266C43.4616 41.5204 43.6677 41.6083 43.9391 41.6903C44.4391 41.8407 44.8034 42.0272 45.0319 42.2499C45.2604 42.4725 45.3747 42.7499 45.3747 43.0819C45.3747 43.451 45.235 43.7411 44.9557 43.952C44.6765 44.161 44.3005 44.2655 43.8278 44.2655C43.4997 44.2655 43.2009 44.2059 42.9313 44.0868C42.6618 43.9657 42.4557 43.8007 42.3132 43.5917C42.1725 43.3827 42.1022 43.1405 42.1022 42.8651H42.9841C42.9841 43.3358 43.2653 43.5712 43.8278 43.5712C44.0368 43.5712 44.1999 43.5292 44.3171 43.4452C44.4343 43.3593 44.4929 43.2401 44.4929 43.0878ZM49.1833 40.6532H47.8766V44.2069H46.9977V40.6532H45.7087V39.9413H49.1833V40.6532ZM52.2536 42.3583H50.5661V43.5009H52.5466V44.2069H49.6872V39.9413H52.5407V40.6532H50.5661V41.6698H52.2536V42.3583ZM54.6413 42.6454H53.9411V44.2069H53.0622V39.9413H54.6472C55.1511 39.9413 55.5397 40.0536 55.8132 40.2782C56.0866 40.5028 56.2233 40.8202 56.2233 41.2303C56.2233 41.5214 56.1599 41.7645 56.0329 41.9598C55.9079 42.1532 55.7175 42.3075 55.4616 42.4227L56.3845 44.1659V44.2069H55.4411L54.6413 42.6454ZM53.9411 41.9335H54.6501C54.8708 41.9335 55.0417 41.8778 55.1628 41.7665C55.2839 41.6532 55.3444 41.4979 55.3444 41.3007C55.3444 41.0995 55.2868 40.9413 55.1716 40.826C55.0583 40.7108 54.8835 40.6532 54.6472 40.6532H53.9411V41.9335ZM59.2673 42.704V44.2069H58.3884V39.9413H60.0524C60.3727 39.9413 60.654 39.9999 60.8962 40.1171C61.1403 40.2343 61.3278 40.4012 61.4587 40.618C61.5895 40.8329 61.655 41.078 61.655 41.3534C61.655 41.7714 61.5114 42.1014 61.2243 42.3436C60.9391 42.5839 60.5436 42.704 60.0378 42.704H59.2673ZM59.2673 41.9921H60.0524C60.2849 41.9921 60.4616 41.9374 60.5827 41.828C60.7057 41.7186 60.7673 41.5624 60.7673 41.3593C60.7673 41.1503 60.7057 40.9813 60.5827 40.8524C60.4597 40.7235 60.2897 40.6571 60.0729 40.6532H59.2673V41.9921ZM64.8278 42.3583H63.1403V43.5009H65.1208V44.2069H62.2614V39.9413H65.1149V40.6532H63.1403V41.6698H64.8278V42.3583ZM68.9059 40.6532H67.5993V44.2069H66.7204V40.6532H65.4313V39.9413H68.9059V40.6532ZM71.9763 42.3583H70.2888V43.5009H72.2692V44.2069H69.4099V39.9413H72.2634V40.6532H70.2888V41.6698H71.9763V42.3583ZM74.364 42.6454H73.6638V44.2069H72.7849V39.9413H74.3698C74.8737 39.9413 75.2624 40.0536 75.5358 40.2782C75.8093 40.5028 75.946 40.8202 75.946 41.2303C75.946 41.5214 75.8825 41.7645 75.7556 41.9598C75.6306 42.1532 75.4401 42.3075 75.1843 42.4227L76.1071 44.1659V44.2069H75.1638L74.364 42.6454ZM73.6638 41.9335H74.3727C74.5934 41.9335 74.7643 41.8778 74.8854 41.7665C75.0065 41.6532 75.0671 41.4979 75.0671 41.3007C75.0671 41.0995 75.0095 40.9413 74.8942 40.826C74.7809 40.7108 74.6061 40.6532 74.3698 40.6532H73.6638V41.9335ZM78.8288 43.0878C78.8288 42.9218 78.7702 42.7948 78.653 42.7069C78.5358 42.6171 78.3249 42.5233 78.0202 42.4257C77.7155 42.326 77.4743 42.2284 77.2966 42.1327C76.8122 41.871 76.57 41.5184 76.57 41.0751C76.57 40.8446 76.6345 40.6395 76.7634 40.4598C76.8942 40.2782 77.0807 40.1366 77.3229 40.035C77.5671 39.9335 77.8405 39.8827 78.1432 39.8827C78.4479 39.8827 78.7194 39.9384 78.9577 40.0497C79.196 40.1591 79.3806 40.3143 79.5114 40.5155C79.6442 40.7167 79.7106 40.9452 79.7106 41.201H78.8317C78.8317 41.0057 78.7702 40.8544 78.6472 40.7469C78.5241 40.6376 78.3513 40.5829 78.1286 40.5829C77.9138 40.5829 77.7468 40.6288 77.6276 40.7206C77.5085 40.8104 77.4489 40.9296 77.4489 41.078C77.4489 41.2167 77.5182 41.3329 77.6569 41.4266C77.7975 41.5204 78.0036 41.6083 78.2751 41.6903C78.7751 41.8407 79.1393 42.0272 79.3679 42.2499C79.5964 42.4725 79.7106 42.7499 79.7106 43.0819C79.7106 43.451 79.571 43.7411 79.2917 43.952C79.0124 44.161 78.6364 44.2655 78.1638 44.2655C77.8356 44.2655 77.5368 44.2059 77.2673 44.0868C76.9977 43.9657 76.7917 43.8007 76.6491 43.5917C76.5085 43.3827 76.4382 43.1405 76.4382 42.8651H77.32C77.32 43.3358 77.6013 43.5712 78.1638 43.5712C78.3727 43.5712 78.5358 43.5292 78.653 43.4452C78.7702 43.3593 78.8288 43.2401 78.8288 43.0878Z" fill="#AFB1B8"/>
</symbol><symbol id="icon-logo-3" viewBox="0 0 106 60"><path d="M36.4062 49.1014C36.4221 49.1018 36.4378 49.1049 36.4523 49.1106C36.4668 49.1163 36.4799 49.1245 36.4907 49.1346L36.7089 49.3431C36.5395 49.5118 36.3303 49.6468 36.0954 49.7388C35.8203 49.8391 35.5239 49.8875 35.2257 49.8809C34.9454 49.8859 34.667 49.8408 34.4077 49.7482C34.1738 49.6632 33.9637 49.5356 33.7915 49.3739C33.6158 49.2062 33.4805 49.0096 33.3935 48.7958C33.2982 48.5574 33.2511 48.3065 33.2544 48.0542C33.2505 47.8003 33.3014 47.548 33.4044 47.3103C33.4996 47.0951 33.6433 46.8986 33.827 46.7322C34.0132 46.5691 34.2359 46.4408 34.4813 46.3555C34.7499 46.265 35.0358 46.22 35.3238 46.2228C35.5913 46.2172 35.8574 46.2582 36.1063 46.3436C36.3222 46.425 36.5205 46.538 36.6925 46.6777L36.5098 46.9004C36.4972 46.9161 36.4815 46.9297 36.4635 46.9407C36.4419 46.9535 36.4159 46.9594 36.3899 46.9573C36.3616 46.9556 36.3343 46.9474 36.3108 46.9336L36.2126 46.8743L36.0763 46.7985C36.0175 46.7704 35.9564 46.7458 35.8936 46.7251C35.8128 46.6999 35.7298 46.6801 35.6455 46.6659C35.5385 46.6487 35.4299 46.6408 35.3211 46.6422C35.1137 46.6399 34.9079 46.6737 34.7158 46.7417C34.5367 46.8046 34.3749 46.8999 34.2414 47.0212C34.1054 47.1503 34.0007 47.3018 33.9333 47.4667C33.8565 47.6553 33.8187 47.8542 33.8215 48.0542C33.8182 48.2574 33.8561 48.4595 33.9333 48.6513C33.9998 48.8147 34.1027 48.9653 34.2359 49.0943C34.3608 49.2146 34.5156 49.3086 34.6885 49.3692C34.8665 49.4333 35.0575 49.4655 35.2502 49.4639C35.3615 49.4654 35.4727 49.4591 35.5828 49.445C35.7626 49.4259 35.9351 49.3716 36.0872 49.2862C36.1635 49.2425 36.2356 49.1934 36.3026 49.1393C36.3306 49.1161 36.3675 49.1026 36.4062 49.1014Z" fill="#AFB1B8"/>
<path d="M42.7043 48.0538C42.7077 48.3052 42.6578 48.5549 42.5571 48.7906C42.4682 49.0043 42.3283 49.1993 42.1464 49.3626C41.9645 49.526 41.7449 49.654 41.502 49.7382C40.9682 49.9151 40.3781 49.9151 39.8443 49.7382C39.6029 49.6527 39.3847 49.5244 39.2036 49.3615C39.0218 49.1952 38.8808 48.9986 38.7891 48.7835C38.5927 48.3063 38.5927 47.7847 38.7891 47.3076C38.8822 47.0923 39.023 46.8951 39.2036 46.7271C39.3862 46.5694 39.6043 46.446 39.8443 46.3647C40.3774 46.1846 40.9688 46.1846 41.502 46.3647C41.7442 46.4502 41.9633 46.5784 42.1454 46.7414C42.3249 46.906 42.4648 47.1001 42.5571 47.3123C42.6581 47.5495 42.708 47.8009 42.7043 48.0538ZM42.1318 48.0538C42.1361 47.8527 42.101 47.6525 42.0282 47.4615C41.9671 47.298 41.8677 47.1472 41.7364 47.0185C41.6086 46.8968 41.4512 46.8013 41.2757 46.739C40.8878 46.6095 40.4584 46.6095 40.0706 46.739C39.895 46.8013 39.7376 46.8968 39.6098 47.0185C39.4767 47.1464 39.3763 47.2974 39.3154 47.4615C39.1766 47.8472 39.1766 48.2604 39.3154 48.6461C39.3769 48.81 39.4772 48.9609 39.6098 49.0891C39.7378 49.2101 39.8952 49.3048 40.0706 49.3663C40.4591 49.4925 40.8871 49.4925 41.2757 49.3663C41.451 49.3048 41.6084 49.2101 41.7364 49.0891C41.8672 48.9601 41.9664 48.8094 42.0282 48.6461C42.1013 48.4552 42.1364 48.2549 42.1318 48.0538Z" fill="#AFB1B8"/>
<path d="M47.0013 48.6747L47.0585 48.8074C47.0803 48.76 47.0994 48.7173 47.1212 48.6747C47.142 48.6302 47.1657 48.5867 47.1921 48.5444L48.5853 46.3438C48.6126 46.3059 48.6371 46.2823 48.6644 46.2751C48.7015 46.2653 48.7402 46.2613 48.7789 46.2633H49.1906V49.8425H48.7026V47.2108C48.7026 47.1776 48.7026 47.1397 48.7026 47.0995C48.6999 47.0585 48.6999 47.0173 48.7026 46.9763L47.3012 49.2077C47.2834 49.2411 47.2549 49.2694 47.2191 49.2891C47.1833 49.3089 47.1418 49.3192 47.0994 49.319H47.0203C46.9779 49.3195 46.9362 49.3093 46.9003 49.2895C46.8645 49.2697 46.8361 49.2413 46.8186 49.2077L45.3763 46.9621C45.3763 47.0047 45.3763 47.0474 45.3763 47.09C45.3763 47.1326 45.3763 47.1705 45.3763 47.2037V49.8354H44.9046V46.2633H45.3163C45.355 46.2613 45.3937 46.2653 45.4308 46.2751C45.4646 46.2897 45.4916 46.314 45.5072 46.3438L46.9304 48.5468C46.9583 48.5875 46.9821 48.6303 47.0013 48.6747Z" fill="#AFB1B8"/>
<path d="M52.2443 48.4969V49.8376H51.699V46.2632H52.915C53.1445 46.2594 53.3734 46.2857 53.5939 46.3413C53.7704 46.3848 53.934 46.4607 54.0737 46.564C54.1948 46.6608 54.2882 46.7808 54.3464 46.9146C54.4107 47.0604 54.4422 47.2156 54.4391 47.3717C54.4415 47.5285 54.4072 47.684 54.3382 47.8289C54.2726 47.966 54.1719 48.0884 54.0437 48.1866C53.9038 48.2941 53.7394 48.3749 53.5612 48.4234C53.3489 48.4824 53.1269 48.5104 52.9041 48.5063L52.2443 48.4969ZM52.2443 48.1131H52.9041C53.0474 48.1148 53.1901 48.0964 53.3267 48.0587C53.4394 48.0257 53.5432 47.9733 53.632 47.9047C53.714 47.8391 53.7774 47.7581 53.8174 47.6678C53.8621 47.5723 53.8843 47.4701 53.8829 47.367C53.8892 47.2676 53.8706 47.1683 53.8282 47.0758C53.7858 46.9834 53.7207 46.9 53.6375 46.8317C53.4292 46.6904 53.1676 46.6219 52.9041 46.6398H52.2443V48.1131Z" fill="#AFB1B8"/>
<path d="M59.573 49.8424H59.1422C59.099 49.8438 59.0566 49.8321 59.0223 49.8092C58.9913 49.7869 58.967 49.7585 58.9514 49.7263L58.5806 48.8616H56.7184L56.334 49.7263C56.3198 49.7579 56.2963 49.7857 56.2658 49.8069C56.2312 49.8311 56.1876 49.8437 56.1431 49.8424H55.7123L57.3482 46.2628H57.9153L59.573 49.8424ZM56.8738 48.5134H58.4115L57.7626 47.0564C57.713 46.9468 57.6721 46.8344 57.64 46.72L57.5772 46.9072C57.5582 46.964 57.5363 47.0162 57.5173 47.0588L56.8738 48.5134Z" fill="#AFB1B8"/>
<path d="M61.9287 46.2795C61.9613 46.295 61.9893 46.3169 62.0105 46.3434L64.3962 49.0417C64.3962 48.9991 64.3962 48.9564 64.3962 48.9161C64.3962 48.8759 64.3962 48.8356 64.3962 48.7977V46.2629H64.8842V49.8424H64.6116C64.5728 49.8434 64.5344 49.8361 64.4998 49.8211C64.4661 49.804 64.4365 49.7815 64.4125 49.7548L62.0296 47.0589C62.0322 47.0999 62.0322 47.141 62.0296 47.1821C62.0296 47.2223 62.0296 47.2579 62.0296 47.291V49.8424H61.5416V46.2629H61.8306C61.8643 46.2621 61.8978 46.2677 61.9287 46.2795Z" fill="#AFB1B8"/>
<path d="M68.903 48.4188V49.8402H68.3577V48.4188L66.85 46.2631H67.338C67.3801 46.2609 67.4216 46.2718 67.4553 46.2938C67.4849 46.3168 67.5098 46.3441 67.5289 46.3744L68.4722 47.765C68.5104 47.8242 68.5431 47.8787 68.5704 47.9308C68.5977 47.9829 68.6195 48.0327 68.6386 48.0824L68.7094 47.9284C68.7359 47.8721 68.7669 47.8175 68.8021 47.765L69.7319 46.3649C69.7514 46.337 69.7753 46.3115 69.8028 46.2891C69.8351 46.2646 69.8771 46.2518 69.92 46.2536H70.4135L68.903 48.4188Z" fill="#AFB1B8"/>
<path d="M46.7313 40.2561C46.9685 40.2822 47.2085 40.3035 47.4511 40.3225C51.13 38.8926 54.2421 36.5523 56.3986 33.5942C58.5551 30.636 59.6602 27.1912 59.5758 23.6904L55.5215 20.1678C56.3458 23.8951 55.9602 27.7482 54.4078 31.2959C52.8554 34.8437 50.1975 37.9461 46.7313 40.2561Z" fill="#AFB1B8"/>
<path d="M45.2836 40.0923L45.3927 40.1112C49.0966 37.8094 51.9205 34.5951 53.4992 30.8839C55.0779 27.1727 55.3388 23.1353 54.2483 19.2939L48.4736 14.2767C50.8093 18.4008 51.7495 23.0162 51.1847 27.5862C50.62 32.1562 48.5737 36.493 45.2836 40.0923Z" fill="#AFB1B8"/>
<path d="M64.8679 27.8265C63.8868 31.6731 61.504 35.1423 58.0735 37.7189C57.0716 38.4755 55.9909 39.1496 54.8453 39.7324C57.6388 39.019 60.2064 37.7578 62.3502 36.046C64.4939 34.3341 66.1566 32.2174 67.2099 29.859L64.8679 27.8265Z" fill="#AFB1B8"/>
<path d="M63.949 27.2601L60.6146 24.3629C60.5508 27.666 59.47 30.894 57.4845 33.7114C55.499 36.5287 52.6813 38.8327 49.3242 40.3837H49.3406C50.0887 40.3835 50.8362 40.3447 51.579 40.2676C54.7164 39.155 57.488 37.3849 59.6464 35.1152C61.8049 32.8455 63.283 30.1469 63.949 27.2601Z" fill="#AFB1B8"/>
<path d="M45.7662 12.1609L41.7883 8.69995C38.2322 9.89391 35.1737 11.9928 33.0133 14.722C30.8529 17.4512 29.6911 20.6835 29.68 23.9959V23.9959C29.6933 27.656 31.1112 31.2077 33.7092 34.0888C36.3072 36.9699 39.937 39.016 44.024 39.903C47.6724 36.041 49.8085 31.2687 50.1218 26.2798C50.4351 21.2908 48.9094 16.3449 45.7662 12.1609Z" fill="#AFB1B8"/>
<path d="M73.14 26.7273C73.1256 22.3848 71.1338 18.2238 67.5996 15.1532C64.0655 12.0826 59.2763 10.352 54.2783 10.3395C51.9687 10.3374 49.6788 10.7077 47.5248 11.4315L71.8804 32.5926C72.7143 30.7221 73.1414 28.7333 73.14 26.7273Z" fill="#AFB1B8"/>
</symbol><symbol id="icon-logo-2" viewBox="0 0 106 60"><path fill-rule="evenodd" clip-rule="evenodd" d="M50.1136 5.93452H49.977C49.7671 5.92181 49.5571 5.91672 49.3471 5.91163H49.3471H49.3269H48.8918C48.4946 5.91163 48.0898 5.92181 47.6876 5.94215C47.6573 5.93994 47.6269 5.93994 47.5966 5.94215C43.9522 6.14863 40.3817 7.05951 37.0805 8.62492L36.6479 8.83344V30.9746L37.6598 30.6313C38.5477 30.3261 39.4938 30.0515 40.4728 29.7972C43.1193 29.1178 45.8367 28.7567 48.568 28.7216V31.6306C48.2062 31.6332 47.8546 31.6434 47.503 31.6612H47.4195C45.3175 31.7765 43.2317 32.0967 41.1913 32.6173C38.6072 33.2643 36.1143 34.2357 33.7716 35.5086V7.11189C36.2047 5.69275 38.8253 4.62687 41.5556 3.94596C43.9527 3.32705 46.4169 3.00931 48.8918 3H49.3193C49.8303 3.01271 50.3287 3.0356 50.7967 3.0712C52.0297 3.15778 53.2528 3.35263 54.4521 3.65353V6.51685C53.2874 6.24551 52.1032 6.06695 50.9105 5.98284C50.8863 5.98079 50.8621 5.97872 50.8379 5.97666C50.5911 5.95561 50.344 5.93452 50.1136 5.93452ZM55.1528 8.86138C55.7877 8.9097 56.4455 8.93259 57.1108 8.93259C59.7125 8.92307 62.3031 8.59083 64.8239 7.94339C67.4068 7.29396 69.8986 6.32178 72.2411 5.04956V32.9402C69.8067 34.3585 67.1853 35.4243 64.4546 36.1061C62.0571 36.7227 59.5931 37.0395 57.1184 37.0496C55.2433 37.0647 53.3737 36.8443 51.553 36.3935V8.32229C51.983 8.42146 52.4257 8.51301 52.876 8.58929C53.6147 8.7139 54.3939 8.80544 55.1528 8.86138ZM69.3471 9.07753L68.3352 9.41828C67.4042 9.73106 66.4657 10.0108 65.5221 10.26C62.7749 10.966 59.9514 11.3281 57.1158 11.3382C56.4556 11.3382 55.8485 11.3204 55.2616 11.2822L54.4546 11.2288V31.3178V34.0057L55.1477 34.0667C55.7903 34.1227 56.4531 34.1506 57.1209 34.1506C59.3544 34.1412 61.5781 33.8533 63.7412 33.2937C65.5223 32.8469 67.2552 32.2243 68.9145 31.4348L69.3471 31.2263V9.07753Z" fill="#AFB1B8"/>
<path d="M35.7371 45.2124C35.5917 45.0615 35.4163 44.943 35.2224 44.8646C35.0284 44.7862 34.8203 44.7496 34.6114 44.7572C34.3888 44.7542 34.1678 44.7957 33.9613 44.8793C33.7719 44.9547 33.5998 45.068 33.4553 45.2124C33.3125 45.3572 33.2013 45.5304 33.129 45.721C33.0497 45.9207 33.0101 46.1341 33.0126 46.3491V50.1431C33.0036 50.4104 33.0546 50.6764 33.1619 50.9212C33.2514 51.1156 33.3807 51.2889 33.5413 51.4298C33.693 51.5575 33.871 51.6495 34.0625 51.6994C34.2469 51.7512 34.4376 51.7777 34.6291 51.7782C34.8404 51.7803 35.0495 51.7351 35.2413 51.646C35.4309 51.563 35.6028 51.4438 35.7473 51.295C35.8881 51.1476 36.0005 50.9752 36.0786 50.7864C36.1597 50.5951 36.201 50.3892 36.2001 50.1812V49.7566H35.2084V50.0948C35.2114 50.2103 35.1916 50.3252 35.1502 50.433C35.1179 50.5137 35.0688 50.5866 35.006 50.6466C34.9446 50.6962 34.8742 50.7334 34.7986 50.7559C34.7316 50.7782 34.6617 50.7902 34.5912 50.7915C34.5026 50.8018 34.413 50.7885 34.3312 50.7527C34.2495 50.717 34.1786 50.6602 34.1257 50.5881C34.0322 50.4356 33.9864 50.2585 33.9942 50.0795V46.5423C33.988 46.3462 34.0297 46.1515 34.1156 45.9753C34.1671 45.8952 34.2399 45.8313 34.3258 45.7908C34.4117 45.7503 34.5071 45.7349 34.6013 45.7464C34.6868 45.7434 34.7717 45.7612 34.8488 45.7984C34.9259 45.8356 34.9929 45.8911 35.044 45.96C35.155 46.1057 35.213 46.2852 35.2084 46.4686V46.7966H36.19V46.4101C36.1919 46.1831 36.1507 45.9578 36.0685 45.7464C35.9953 45.5476 35.8825 45.3659 35.7371 45.2124Z" fill="#AFB1B8"/>
<path d="M41.6289 45.1691C41.3127 44.9021 40.9136 44.7546 40.5007 44.7521C40.2987 44.7529 40.0984 44.7891 39.9087 44.8589C39.7161 44.9279 39.5384 45.0332 39.3851 45.1691C39.2208 45.3168 39.0897 45.498 39.0005 45.7006C38.9006 45.9323 38.8515 46.183 38.8563 46.4355V50.0744C38.8495 50.3304 38.8987 50.5847 39.0005 50.8195C39.0903 51.0151 39.2215 51.1887 39.3851 51.328C39.5367 51.4688 39.7147 51.5777 39.9087 51.6485C40.0984 51.7183 40.2987 51.7544 40.5007 51.7553C40.7027 51.7549 40.9031 51.7187 41.0926 51.6485C41.29 51.5767 41.4719 51.468 41.6289 51.328C41.7871 51.1861 41.9145 51.013 42.0033 50.8195C42.1051 50.5847 42.1544 50.3304 42.1475 50.0744V46.4355C42.1524 46.183 42.1032 45.9323 42.0033 45.7006C41.9151 45.5001 41.7878 45.3194 41.6289 45.1691ZM41.166 50.0744C41.1743 50.1714 41.1609 50.269 41.1268 50.3601C41.0926 50.4512 41.0386 50.5334 40.9687 50.6008C40.8377 50.7106 40.6725 50.7708 40.5019 50.7708C40.3313 50.7708 40.1662 50.7106 40.0352 50.6008C39.9652 50.5334 39.9112 50.4512 39.8771 50.3601C39.8429 50.269 39.8295 50.1714 39.8379 50.0744V46.4355C39.8295 46.3385 39.8429 46.2409 39.8771 46.1498C39.9112 46.0587 39.9652 45.9764 40.0352 45.9091C40.1662 45.7993 40.3313 45.7391 40.5019 45.7391C40.6725 45.7391 40.8377 45.7993 40.9687 45.9091C41.0386 45.9764 41.0926 46.0587 41.1268 46.1498C41.1609 46.2409 41.1743 46.3385 41.166 46.4355V50.0744Z" fill="#AFB1B8"/>
<path d="M49.3673 51.6994V44.8107H48.4136L47.1614 48.4572H47.1437L45.8813 44.8107H44.9377V51.6994H45.9218V47.5087H45.9395L46.9033 50.4712H47.3941L48.3655 47.5087H48.3832V51.6994H49.3673Z" fill="#AFB1B8"/>
<path d="M54.9581 45.2937C54.8065 45.1237 54.6153 44.9943 54.4015 44.9173C54.1712 44.8424 53.9302 44.8063 53.6881 44.8105H52.226V51.6993H53.2075V49.0089H53.7134C54.0197 49.0228 54.3244 48.958 54.5988 48.8207C54.822 48.6968 55.0081 48.515 55.1377 48.2943C55.2512 48.1111 55.3277 47.9071 55.3628 47.6942C55.4014 47.435 55.4192 47.173 55.4159 46.911C55.4255 46.5802 55.3932 46.2495 55.3198 45.9269C55.2543 45.6885 55.1299 45.4706 54.9581 45.2937ZM54.4521 47.3941C54.4479 47.5188 54.4168 47.6412 54.361 47.7527C54.3049 47.8586 54.2162 47.9434 54.1081 47.9942C53.9627 48.0593 53.8041 48.0889 53.6451 48.0807H53.1974V45.7387H53.7033C53.8557 45.7312 54.0075 45.7609 54.146 45.8251C54.2475 45.8834 54.3281 45.9724 54.3762 46.0794C54.4299 46.2004 54.4591 46.331 54.4622 46.4634C54.4622 46.6084 54.4622 46.7609 54.4622 46.9211C54.4622 47.0813 54.4723 47.2466 54.4622 47.3941H54.4521Z" fill="#AFB1B8"/>
<path d="M59.6077 44.8107H58.8032L57.2854 51.6994H58.2669L58.5553 50.2194H59.8935L60.1819 51.6994H61.1635L59.6077 44.8107ZM58.702 49.2811L59.1852 46.784H59.2029L59.6836 49.2811H58.702Z" fill="#AFB1B8"/>
<path d="M65.9497 48.9607H65.932L64.4496 44.8107H63.506V51.6994H64.4875V47.557H64.5078L66.0079 51.6994H66.9312V44.8107H65.9497V48.9607Z" fill="#AFB1B8"/>
<path d="M71.9476 44.8107L71.1583 47.5494H71.1381L70.3488 44.8107H69.3091L70.6574 48.7878V51.6994H71.639V48.7878L72.9873 44.8107H71.9476Z" fill="#AFB1B8"/>
<path d="M33 53.6445H33.4731V54.9719H33.7943V53.6445H34.2649V53.3724H33V53.6445Z" fill="#AFB1B8"/>
<path d="M36.9767 53.3724L36.3569 54.9719H36.6984L36.83 54.6083H37.4675L37.6041 54.9719H37.9532L37.3182 53.3724H36.9767ZM36.9261 54.3387L37.1437 53.7462L37.3612 54.3387H36.9261Z" fill="#AFB1B8"/>
<path d="M40.9079 54.3821H41.2773V54.5881C41.1694 54.6746 41.0358 54.722 40.8978 54.7229C40.8333 54.7265 40.7689 54.7145 40.7099 54.688C40.6509 54.6614 40.5991 54.6211 40.5588 54.5703C40.474 54.4485 40.4322 54.3017 40.4399 54.1533C40.4399 53.7973 40.5942 53.6193 40.9003 53.6193C40.9809 53.6112 41.0617 53.6325 41.128 53.6791C41.1944 53.7257 41.2419 53.7947 41.2621 53.8735L41.5783 53.8125C41.51 53.4997 41.2849 53.3421 40.9003 53.3421C40.6947 53.3366 40.4947 53.4103 40.3413 53.5481C40.2607 53.6276 40.1983 53.7239 40.1586 53.8302C40.1188 53.9365 40.1026 54.0502 40.1111 54.1634C40.1017 54.3823 40.1749 54.5966 40.316 54.7636C40.3943 54.8444 40.4892 54.9071 40.594 54.9475C40.6988 54.9879 40.8111 55.0049 40.9231 54.9975C41.1734 55.0045 41.4165 54.9133 41.6011 54.7432V54.1126H40.9079V54.3821Z" fill="#AFB1B8"/>
<path d="M44.9226 53.3724H44.5988V54.9719H45.7194V54.6998H44.9226V53.3724Z" fill="#AFB1B8"/>
<path d="M48.3175 53.3724H47.9937V54.9719H48.3175V53.3724Z" fill="#AFB1B8"/>
<path d="M51.6365 54.4405L50.9813 53.3724H50.6676V54.9719H50.9686V53.9268L51.6112 54.9719H51.9325V53.3724H51.6365V54.4405Z" fill="#AFB1B8"/>
<path d="M54.6368 54.2675H55.4337V53.9954H54.6368V53.6445H55.4944V53.3724H54.313V54.9719H55.5273V54.6998H54.6368V54.2675Z" fill="#AFB1B8"/>
<path d="M61.9122 54.0031H61.2823V53.3724H60.9611V54.9719H61.2823V54.2726H61.9122V54.9719H62.2335V53.3724H61.9122V54.0031Z" fill="#AFB1B8"/>
<path d="M64.9302 54.2675H65.7296V53.9954H64.9302V53.6445H65.7903V53.3724H64.6089V54.9719H65.8206V54.6998H64.9302V54.2675Z" fill="#AFB1B8"/>
<path d="M69.0233 54.2676C69.3015 54.2244 69.4432 54.0769 69.4432 53.8226C69.4513 53.7546 69.441 53.6856 69.4134 53.623C69.3858 53.5603 69.3419 53.5063 69.2863 53.4666C69.1415 53.3938 68.9799 53.3614 68.8183 53.3725H68.1404V54.972H68.4617V54.3032H68.5249C68.5934 54.299 68.6619 54.3112 68.7247 54.3388C68.7717 54.3678 68.8108 54.4079 68.8386 54.4558L69.1877 54.9644H69.5722L69.3774 54.6516C69.2913 54.4972 69.1699 54.3656 69.0233 54.2676ZM68.6994 54.0464H68.4617V53.6446H68.7146C68.8248 53.6357 68.9357 53.6486 69.041 53.6827C69.0644 53.7034 69.0828 53.7291 69.095 53.7579C69.1072 53.7867 69.1127 53.8179 69.1113 53.8492C69.1098 53.8804 69.1014 53.911 69.0866 53.9385C69.0718 53.966 69.051 53.9899 69.0258 54.0082C68.9202 54.0406 68.8096 54.0535 68.6994 54.0464Z" fill="#AFB1B8"/>
<path d="M72.1096 54.2675H72.9064V53.9954H72.1096V53.6445H72.9697V53.3724H71.7858V54.9719H73V54.6998H72.1096V54.2675Z" fill="#AFB1B8"/>
/></symbol><symbol id="icon-logo-1" viewBox="0 0 106 60"><path fill="#afb1b8" style="fill:var(--color2, #afb1b8)" d="M38 7L45.0078 13.6341L32 13.6265V45.8137H66V33.507L73 40.1338V7H38ZM65.6924 32.7283L45.8226 13.918H65.6924V32.7283ZM59.5231 41.1055H37.3801V19.4579H38.9453V39.6397H59.5231V41.1055ZM42.6089 50.0991L41.791 51.7837L40.9731 50.0991H40.2871L41.481 52.3452V53.6538H42.1011V52.3452L43.2925 50.0991H42.6089ZM43.6367 53.6538L43.9248 52.8262H45.3018L45.5923 53.6538H46.2368L44.8916 50.0991H44.3374L42.9946 53.6538H43.6367ZM44.6133 50.8535L45.1284 52.3281H44.0981L44.6133 50.8535ZM47.8701 52.2427C47.7806 52.3794 47.7358 52.5299 47.7358 52.6943C47.7358 52.9938 47.8408 53.2371 48.0508 53.4243C48.2624 53.6099 48.5439 53.7026 48.8955 53.7026C49.2471 53.7026 49.5498 53.6074 49.8037 53.417L50.0039 53.6538H50.6924L50.1699 53.0361C50.375 52.7562 50.4775 52.3973 50.4775 51.9595H49.9624C49.9624 52.1987 49.9128 52.416 49.8135 52.6113L49.1274 51.8008L49.3691 51.625C49.54 51.5013 49.6629 51.3776 49.7378 51.2539C49.8127 51.1286 49.8501 50.9919 49.8501 50.8438C49.8501 50.6191 49.7671 50.4312 49.6011 50.2798C49.4367 50.1268 49.2251 50.0503 48.9663 50.0503C48.6798 50.0503 48.452 50.1317 48.2827 50.2944C48.1134 50.4556 48.0288 50.6753 48.0288 50.9536C48.0288 51.0675 48.0557 51.1855 48.1094 51.3076C48.1647 51.4297 48.2616 51.5778 48.3999 51.752C48.1362 51.9408 47.9596 52.1043 47.8701 52.2427ZM49.4741 53.0288C49.3 53.1623 49.1128 53.229 48.9126 53.229C48.7352 53.229 48.5936 53.1777 48.4878 53.0752C48.382 52.9727 48.3291 52.8392 48.3291 52.6748C48.3291 52.4844 48.4268 52.3151 48.6221 52.167L48.6978 52.1133L49.4741 53.0288ZM48.8369 51.4541C48.6693 51.2474 48.5854 51.0757 48.5854 50.939C48.5854 50.8201 48.6196 50.7217 48.688 50.6436C48.7563 50.5654 48.8483 50.5264 48.9639 50.5264C49.0713 50.5264 49.16 50.5597 49.23 50.6265C49.3 50.6916 49.335 50.7705 49.335 50.8633C49.335 51.0033 49.2845 51.118 49.1836 51.2075L49.1079 51.2686L48.8369 51.4541ZM54.623 53.3853C54.8672 53.172 55.0072 52.8758 55.043 52.4966H54.4277C54.3952 52.7505 54.3179 52.932 54.1958 53.041C54.0737 53.1501 53.8914 53.2046 53.6489 53.2046C53.3836 53.2046 53.1818 53.1037 53.0435 52.9019C52.9067 52.7 52.8384 52.4071 52.8384 52.0229V51.708C52.8416 51.3288 52.9149 51.0415 53.0581 50.8462C53.203 50.6493 53.4097 50.5508 53.6782 50.5508C53.9093 50.5508 54.0843 50.6077 54.2031 50.7217C54.3236 50.834 54.3984 51.0179 54.4277 51.2734H55.043C55.0039 50.8844 54.8647 50.5833 54.6255 50.3701C54.3862 50.1569 54.0705 50.0503 53.6782 50.0503C53.3869 50.0503 53.1297 50.1195 52.9067 50.2578C52.6854 50.3962 52.5153 50.5931 52.3965 50.8486C52.2777 51.1042 52.2183 51.3996 52.2183 51.7349V52.0669C52.2231 52.394 52.2842 52.6813 52.4014 52.9287C52.5186 53.1761 52.6846 53.3674 52.8994 53.5024C53.1159 53.6359 53.3657 53.7026 53.6489 53.7026C54.0542 53.7026 54.3789 53.5968 54.623 53.3853ZM58.2534 52.8872C58.3739 52.6235 58.4341 52.3175 58.4341 51.9692V51.7715C58.4325 51.4248 58.3706 51.1213 58.2485 50.8608C58.1265 50.5988 57.9531 50.3986 57.7285 50.2603C57.5055 50.1203 57.2492 50.0503 56.9595 50.0503C56.6698 50.0503 56.4126 50.1211 56.188 50.2627C55.965 50.4027 55.7917 50.6053 55.668 50.8706C55.5459 51.1359 55.4849 51.4419 55.4849 51.7886V51.9888C55.4865 52.3289 55.5483 52.6292 55.6704 52.8896C55.7941 53.1501 55.9683 53.3511 56.1929 53.4927C56.4191 53.6326 56.6763 53.7026 56.9644 53.7026C57.2557 53.7026 57.5129 53.6326 57.7358 53.4927C57.9604 53.3511 58.133 53.1493 58.2534 52.8872ZM57.5918 50.8779C57.7415 51.0879 57.8164 51.3898 57.8164 51.7837V51.9692C57.8164 52.3696 57.7423 52.674 57.5942 52.8823C57.4478 53.0907 57.2378 53.1948 56.9644 53.1948C56.6942 53.1948 56.4826 53.0882 56.3296 52.875C56.1782 52.6618 56.1025 52.3599 56.1025 51.9692V51.7642C56.1058 51.3817 56.1823 51.0863 56.332 50.8779C56.4834 50.668 56.6925 50.563 56.9595 50.563C57.2329 50.563 57.4437 50.668 57.5918 50.8779Z"/></symbol><symbol id="icon-linkedin" viewBox="0 0 32 32"><path d="M31.992 32H32V20.262c0-5.741-1.237-10.163-7.947-10.163-3.227 0-5.392 1.77-6.277 3.45h-.093v-2.914h-6.365v21.363h6.627V21.42c0-2.786.528-5.48 3.978-5.48 3.398 0 3.448 3.179 3.448 5.658V32h6.621zM.528 10.635h6.635V32H.528V10.635zM3.843 0A3.843 3.843 0 0 0 0 3.843c0 2.12 1.722 3.878 3.843 3.878 2.12 0 3.842-1.757 3.842-3.878S5.965.002 3.844 0z"/></symbol><symbol id="icon-instagram" viewBox="0 0 32 32"><path d="M31.968 9.408c-.074-1.701-.349-2.869-.742-3.882a7.839 7.839 0 0 0-1.85-2.837l-.001-.001A7.906 7.906 0 0 0 26.597.861l-.054-.018C25.524.449 24.362.176 22.661.101 20.949.019 20.405 0 16.059 0c-4.344 0-4.888.019-6.595.094-1.699.074-2.869.349-3.88.742a7.847 7.847 0 0 0-2.839 1.85l-.001.001A7.9 7.9 0 0 0 .919 5.465l-.018.054C.506 6.538.232 7.7.157 9.401c-.082 1.712-.101 2.256-.101 6.602 0 4.344.019 4.888.094 6.595.075 1.701.35 2.869.744 3.882a7.915 7.915 0 0 0 1.849 2.837l.001.001c.8.813 1.77 1.443 2.832 1.843 1.019.395 2.182.67 3.882.744 1.707.075 2.251.094 6.595.094 4.346 0 4.89-.019 6.595-.094 1.701-.074 2.869-.349 3.882-.742a8.237 8.237 0 0 0 4.664-4.628l.019-.055c.394-1.019.669-2.182.744-3.882.075-1.707.093-2.251.093-6.595s-.006-4.888-.08-6.595zm-2.88 13.066c-.07 1.563-.333 2.406-.55 2.97a5.341 5.341 0 0 1-3.004 3.024l-.036.012c-.56.219-1.411.482-2.968.55-1.688.075-2.194.094-6.464.094-4.269 0-4.782-.019-6.464-.094-1.563-.069-2.406-.331-2.97-.55a4.953 4.953 0 0 1-1.836-1.192l-.001-.001a4.978 4.978 0 0 1-1.184-1.803L3.6 25.45c-.218-.563-.48-1.413-.549-2.97-.075-1.688-.094-2.195-.094-6.464 0-4.27.019-4.784.094-6.464.069-1.563.331-2.406.549-2.97a4.897 4.897 0 0 1 1.198-1.837l.002-.002a4.972 4.972 0 0 1 1.806-1.182l.034-.011c.56-.219 1.411-.48 2.968-.55 1.688-.074 2.195-.093 6.464-.093 4.275 0 4.782.019 6.464.093 1.563.069 2.406.331 2.97.55a4.91 4.91 0 0 1 1.837 1.194c.531.52.938 1.144 1.195 1.84.218.56.48 1.411.549 2.968.075 1.688.094 2.194.094 6.464 0 4.269-.019 4.768-.094 6.458z"/><path d="M16.059 7.782a8.223 8.223 0 0 0-8.219 8.221 8.223 8.223 0 0 0 16.442.008v-.009a8.223 8.223 0 0 0-8.221-8.221zm0 13.552a5.333 5.333 0 0 1 .001-10.666h.001a5.334 5.334 0 1 1 0 10.668zM26.525 7.458a1.92 1.92 0 0 1-3.84 0 1.92 1.92 0 0 1 3.84 0z"/></symbol><symbol id="icon-facebook" viewBox="0 0 32 32"><path d="M20.528 5.312h2.923V.224A36.496 36.496 0 0 0 19.343 0h-.156.008c-4.213 0-7.099 2.65-7.099 7.52V12H7.45v5.688h4.646V32h5.698V17.69h4.462l.707-5.69h-5.168V8.08c0-1.643.443-2.768 2.734-2.768z"/></symbol><symbol id="icon-diagram" viewBox="0 0 32 32"><path fill="#2196f3" style="fill:var(--color3, #2196f3)" d="M14.926 14.965h1.066v4.798h-1.066v-4.798zm4.264 2.132h1.066v2.665H19.19v-2.665zm-8.529 1.599h1.066v1.066h-1.066v-1.066zm-3.198-.533h1.066v1.599H7.463v-1.599z"/><path fill="#212121" style="fill:var(--color4, #212121)" d="M1.599 28.291h25.586a1.6 1.6 0 0 0 1.599-1.599V24.56a1.6 1.6 0 0 0-1.599-1.599h-.533V9.667l3.028-2.868a1.608 1.608 0 1 0-.742-.752l-.004-.01-2.281 2.162v-1.23a1.6 1.6 0 0 0-1.599-1.599H3.731a1.6 1.6 0 0 0-1.599 1.599v15.992h-.533A1.6 1.6 0 0 0 0 24.56v2.132a1.6 1.6 0 0 0 1.599 1.599zM30.384 4.837a.533.533 0 0 1 0 1.066.533.533 0 0 1 0-1.066zM3.198 6.969c0-.294.239-.533.533-.533h21.323c.294 0 .533.239.533.533v2.239l-1.066 1.013V8.036a.534.534 0 0 0-.534-.534H4.798a.534.534 0 0 0-.534.533v13.327c0 .294.239.533.534.533h19.189a.534.534 0 0 0 .534-.533v-9.675l1.066-1.01V22.96H3.198V6.969zm4.798 6.93h-.005a1.6 1.6 0 1 0 1.112 2.748l1.853.93a.535.535 0 0 0 .636-.122l3.939-4.432 3.872 2.902a.534.534 0 0 0 .686-.039l3.365-3.188v8.131H5.331V8.568h18.123v2.661l-3.771 3.572-3.904-2.927a.534.534 0 0 0-.718.071v.001l-3.993 4.493-1.493-.746c.011-.064.017-.128.02-.193a1.6 1.6 0 0 0-1.599-1.599zm.533 1.599a.533.533 0 0 1-1.066 0 .533.533 0 0 1 1.066 0zm3.198 8.528h5.33v.533a.533.533 0 0 1-.533.533h-4.265a.533.533 0 0 1-.533-.533v-.533zm-10.66.534c0-.294.238-.533.533-.533h9.062v.533a1.6 1.6 0 0 0 1.599 1.599h4.265a1.6 1.6 0 0 0 1.599-1.599v-.533h9.062c.294 0 .533.239.533.533v2.132a.533.533 0 0 1-.533.533H1.601a.533.533 0 0 1-.533-.533V24.56z"/></symbol><symbol id="icon-clock" viewBox="0 0 32 32"><path fill="#212121" style="fill:var(--color4, #212121)" d="M31.296 15.301C31.295 6.849 24.441-.002 15.988 0S.685 6.855.687 15.308c.002 6.788 4.422 12.543 10.541 14.545l.108.031a.667.667 0 0 0 .529-.065.636.636 0 0 0 .283-.357l3.865-12.25a1.913 1.913 0 1 0-.852-3.63l.011-.005-5.106-5.107a.638.638 0 0 0-.902.902l5.103 5.109a1.847 1.847 0 0 0-.191.826c0 .602.283 1.137.723 1.48l.004.003-3.682 11.673C3.843 25.782.117 17.709 2.797 10.431S13.551-.573 20.829 2.108c7.278 2.681 11.004 10.754 8.323 18.032-1.345 3.581-4.003 6.406-7.374 7.938l-.088.036-.398-1.874a.639.639 0 0 0-1.05-.343l.001-.001-3.837 3.426a.637.637 0 0 0 .227 1.083l.005.001 4.899 1.563a.637.637 0 0 0 .818-.744l.001.004-.391-1.839c5.528-2.374 9.329-7.772 9.329-14.057v-.034.002zm-15.304-.637a.638.638 0 0 1 0 1.276.638.638 0 0 1 0-1.276zm2.1 14.864 2.184-1.948.603 2.84-2.787-.892z"/><path fill="#2196f3" style="fill:var(--color3, #2196f3)" d="M15.354 3.185V4.46a.638.638 0 0 0 1.276 0V3.185a.638.638 0 1 0-1.276 0zM3.876 14.664a.638.638 0 0 0 0 1.276h1.275a.638.638 0 0 0 0-1.276H3.876zm24.232 1.275a.638.638 0 0 0 0-1.276h-1.275a.638.638 0 0 0 0 1.276h1.275z"/></symbol><symbol id="icon-astronaut" viewBox="0 0 32 32"><path fill="#2196f3" style="fill:var(--color3, #2196f3)" d="M31.974 4.524a.535.535 0 0 0-.427-.362h-.003l-1.911-.278-.855-1.731c-.179-.365-.777-.365-.956 0l-.855 1.731-1.911.278a.534.534 0 0 0-.296.91l1.383 1.348-.326 1.903a.532.532 0 0 0 .774.562l1.709-.899 1.709.899a.534.534 0 0 0 .773-.565v.003l-.326-1.903 1.383-1.348a.535.535 0 0 0 .134-.55l.001.004zm-2.463 1.327a.53.53 0 0 0-.153.472l.191 1.114-1-.526a.525.525 0 0 0-.501.001l.003-.001-1 .526.191-1.114a.53.53 0 0 0-.152-.472l-.811-.79 1.119-.162a.532.532 0 0 0 .402-.292l.5-1.013.5 1.013a.532.532 0 0 0 .402.292l1.119.162-.809.79zm-3.377 14.671h-1.067v1.067h1.067v-1.067zm0 2.134h-1.067v1.066h1.067v-1.066zm1.066-1.067h-1.067v1.067H27.2v-1.067zm-2.133 0H24v1.067h1.067v-1.067zm-2.667 4.8h-1.067v1.067H22.4v-1.067zm0 2.134h-1.067v1.067H22.4v-1.067zm1.067-1.067H22.4v1.067h1.067v-1.067zm-2.133 0h-1.067v1.067h1.067v-1.067zM16 24.256h-1.066v1.067H16v-1.067zm0 2.133h-1.066v1.067H16v-1.067zm1.067-1.067H16v1.067h1.067v-1.067zm-2.133 0h-1.067v1.067h1.067v-1.067zm-9.067-19.2H4.801v1.066h1.066V6.122zm0 2.134H4.801v1.066h1.066V8.256zm1.066-1.067H5.866v1.067h1.066V7.189zm-2.133 0H3.733v1.067H4.8V7.189z"/><path fill="#212121" style="fill:var(--color4, #212121)" d="M24.715 14.16a1.774 1.774 0 0 0-1.179-.703l-.009-.001a1.769 1.769 0 0 0-1.344.355l.004-.003-1.253.96-1.898 1.417-1.358-.541c2.421-1.086 4.113-3.508 4.113-6.32 0-3.823-3.122-6.934-6.961-6.934S7.869 5.5 7.869 9.324c0 1.386.415 2.674 1.12 3.759l-2.768-.024c-.009 0-.016.005-.023.005a.511.511 0 0 0-.159.033l.004-.001c-.013.005-.026.007-.038.013-.006.003-.013.003-.019.006l-3.233 1.596-.001.001-1.893.91a.5.5 0 0 0-.065.036l.001-.001a1.782 1.782 0 0 0-.594 2.306l-.005-.01c.22.424.592.742 1.043.885l.013.003a1.772 1.772 0 0 0 1.388-.133l-.009.005 1.388-.738 2.264-1.169 1.357-.008-5.442 5.415-.001.001-1.339 1.333a1.643 1.643 0 0 0-.491 1.173v.005a1.668 1.668 0 0 0 1.667 1.664h.002a1.67 1.67 0 0 0 1.18-.485l1.314-1.309 1.741-1.3.901.897L4.07 27.28a1.643 1.643 0 0 0-.491 1.173v.004a1.662 1.662 0 0 0 1.666 1.664h.003a1.67 1.67 0 0 0 1.18-.485l4.488-4.472c.007-.006.016-.009.022-.016l5.166-5.658 3.471.494a.474.474 0 0 0 .262-.032c.017-.006.032-.015.049-.023.019-.01.039-.015.058-.027l3.213-2.133c.012-.008.018-.021.029-.03.013-.01.029-.014.041-.026l1.271-1.191c.348-.326.564-.787.564-1.3 0-.4-.132-.769-.355-1.066l.003.005zM2.13 17.77a.706.706 0 0 1-.564.05l.005.001a.717.717 0 0 1-.215-1.258l.002-.001 1.314-.632.316.924.133.389-.992.527zm3.497-1.828-1.548.8-.255-.746-.184-.537 2.027-1.001-.04 1.484zm15.1-6.62c0 .918-.219 1.785-.599 2.56l-4.181-1.899a1.865 1.865 0 0 0-.782-1.384l-.006-.004 1.464-4.861c2.377.757 4.104 2.975 4.104 5.588zm-11.789 0c0-3.235 2.644-5.867 5.894-5.867.253 0 .5.022.745.053l-1.432 4.753c-.019 0-.037-.006-.057-.006h-.001a1.872 1.872 0 0 0-1.872 1.867 1.873 1.873 0 0 0 1.872 1.867h.001c.695 0 1.295-.383 1.618-.944l3.863 1.755a5.891 5.891 0 0 1-4.737 2.39c-3.25 0-5.894-2.632-5.894-5.867zm5.957.8c0 .441-.362.8-.806.8h-.001a.804.804 0 0 1-.804-.8c0-.441.361-.8.806-.8s.806.359.806.8zM2.464 25.146a.606.606 0 0 1-.855.001.591.591 0 0 1 0-.844l.962-.959.852.848-.959.954zm3.214 3.734a.606.606 0 0 1-.855.001.591.591 0 0 1 0-.844l.963-.959.852.848-.96.955zm3.482-3.469-.001.001-1.765 1.76-.852-.848 1.765-1.757a.527.527 0 0 0 .09-.136c.007-.014.02-.026.026-.04.016-.041.019-.085.026-.128.003-.025.014-.048.014-.073 0-.035-.013-.07-.02-.105-.006-.032-.006-.064-.019-.096a.536.536 0 0 0-.092-.138c-.01-.012-.014-.026-.025-.038h-.001l-.001-.002-1.607-1.6c-.017-.017-.039-.024-.058-.038a.491.491 0 0 0-.084-.056l-.003-.001a.527.527 0 0 0-.09-.031l-.003-.001a.502.502 0 0 0-.101-.02h-.025a.603.603 0 0 0-.075.005h.003c-.036.005-.069.009-.104.021s-.064.027-.094.045c-.02.011-.043.015-.061.029l-1.774 1.324-.901-.897 2.399-2.386 4.36 4.289-.928.919zm6.819-7.017c-.016-.002-.03.004-.046.003l-.027-.001a.562.562 0 0 0-.092.008h.003a.484.484 0 0 0-.187.07l.002-.001a.492.492 0 0 0-.083.061c-.013.011-.028.016-.04.029l-4.698 5.146-4.328-4.256 2.833-2.818a.535.535 0 0 0-.378-.911h-.002l-2.219.013.028-1.607 3.104.027a6.928 6.928 0 0 0 4.978 2.101h.003c.438 0 .864-.046 1.28-.122.04.032.08.064.129.085l2.41.96.152.758.178.886-3.003-.427zm4.041.178-.313-1.558 1.446-1.08.946 1.257-2.08 1.381zm3.753-2.831-.837.785-.931-1.236.831-.637a.735.735 0 0 1 .543-.143.718.718 0 0 1 .621.71.71.71 0 0 1-.226.521z"/><path fill="#212121" style="fill:var(--color4, #212121)" d="m13.602 18.544-2.143-2.134a.53.53 0 0 0-.752 0l-2.143 2.133a.535.535 0 0 0 0 .756l2.142 2.134a.53.53 0 0 0 .752 0l2.143-2.134a.532.532 0 0 0 0-.756zm-2.519 1.759-1.387-1.381 1.386-1.381 1.387 1.381-1.387 1.381zm6.081-15.232-.258 1.036c.071.018 1.738.452 1.738 2.149h1.067c0-2.017-1.666-2.965-2.547-3.184zm2.547 4.251h-1.067v1.066h1.067V9.322z"/></symbol><symbol id="icon-antenna" viewBox="0 0 32 32"><path fill="#212121" style="fill:var(--color4, #212121)" d="m30.773 22.098-8.443-8.505.937-4.616c.225.09.485.144.758.146h.033a2.16 2.16 0 1 0-2.029-1.42l-.005-.015-4.96.606L8.973.161a.53.53 0 0 0-.376-.16.536.536 0 0 0-.373.155L6.712 1.66a.535.535 0 0 0 0 .754l.814.825C6.383 5.301 5.71 7.761 5.71 10.378c0 4.106 1.656 7.824 4.336 10.525l-.001-.001a.49.49 0 0 0 .146.097 2.986 2.986 0 0 0-.052.546v6.188h-6.4a2.669 2.669 0 0 0-2.667 2.666v1.067c0 .295.239.534.534.534H26.14a.534.534 0 0 0 .533-.534v-1.067a2.67 2.67 0 0 0-2.666-2.666h-6.4v-2.742a14.784 14.784 0 0 0 10.166-1.502l-.077.039.818.823a.534.534 0 0 0 .376.16.536.536 0 0 0 .373-.155l1.512-1.504a.535.535 0 0 0 0-.754zM23.28 6.233a1.067 1.067 0 1 1 .752 1.822h-.004a1.066 1.066 0 0 1-.747-1.822h-.002zm-1.256 3.504-.598 2.946-1.175-1.183 1.774-1.763zm-.605-.902-1.92 1.909-1.486-1.493 3.406-.416zM24.004 28.8a1.6 1.6 0 0 1 1.6 1.6v.534H2.138V30.4a1.6 1.6 0 0 1 1.6-1.6h20.267zm-7.466-2.134v1.067h-5.334v-1.067h5.334zM11.204 25.6v-4.053c0-1.294 1.196-2.346 2.667-2.346s2.667 1.053 2.667 2.346V25.6h-5.334zm6.4-1.696v-2.357c0-1.882-1.675-3.413-3.733-3.413h-.058c-1.353 0-2.54.707-3.213 1.771l-.009.016a13.817 13.817 0 0 1-3.812-9.55c0-2.314.567-4.496 1.569-6.414l-.036.077 18.602 18.709c-1.823.947-3.979 1.502-6.266 1.502-1.079 0-2.128-.124-3.136-.357l.093.018zm11.289-.684L7.836 2.039l.754-.752 7.935 7.98c.004 0 .006.007.01.01l13.114 13.191-.757.752z"/><path fill="#2196f3" style="fill:var(--color3, #2196f3)" d="M13.876 20.267h-.007a1.6 1.6 0 0 0-.003 3.2h.007a1.6 1.6 0 0 0 .002-3.2zm.373 1.978a.534.534 0 1 1-.378-.912.533.533 0 0 1 .374.911h.005z"/></symbol></defs></svg>